<svg width="98" height="74" viewBox="0 0 98 74" fill="none" xmlns="http://www.w3.org/2000/svg">
<path d="M60.3014 29.7208C60.2911 29.7893 60.2842 29.8578 60.2739 29.9263C60.2671 29.9675 60.2602 30.0086 60.2568 30.0531C60.2705 29.9435 60.2842 29.8304 60.3014 29.7208ZM96.9484 70.2581C96.8969 70.9364 96.7187 71.5154 96.2215 72.0122C95.7518 72.4816 95.121 72.742 94.4627 72.742C94.2467 72.742 94.041 72.67 93.8319 72.6084C93.4685 72.7831 93.0742 72.8962 92.6491 72.8962C90.9623 72.903 89.2652 72.7831 87.5783 72.718C85.9018 72.6666 84.2287 72.5467 82.5556 72.4747C80.814 72.3959 79.062 72.4165 77.3203 72.4165C75.5478 72.4096 73.765 72.4028 71.9925 72.4028C66.3286 72.3754 60.6648 72.3617 55.0009 72.4747C52.2239 72.5261 49.4434 72.5536 46.6595 72.5741C43.9235 72.5878 41.1876 72.6666 38.4448 72.6872C35.8872 72.7146 33.3295 72.7009 30.7684 72.6872C27.6417 72.6735 24.5115 72.6598 21.3847 72.7077C18.5699 72.7488 15.7551 72.7077 12.9301 72.7488C9.98158 72.7934 7.03652 72.927 4.08803 72.9989C2.54521 73.0435 1.25953 71.6867 1.25953 70.1793C1.25953 69.7887 1.33838 69.4221 1.48581 69.0864C1.45152 67.2774 1.44124 65.4684 1.37953 63.6526C1.31438 61.6175 1.27324 59.579 1.23553 57.5439C1.17039 53.4258 1.08468 49.3076 1.02296 45.1895C0.981823 42.476 0.995537 39.7455 1.06753 37.032C1.15325 34.0753 1.40353 31.0706 2.00351 28.1688C2.28122 26.8394 2.56921 25.4999 3.01834 24.2151C3.3029 23.3928 3.61147 22.5534 4.0606 21.8031C4.40344 21.2241 4.78058 20.6691 5.17485 20.1312C5.71655 19.3946 6.26854 18.6614 6.92338 18.0242C7.53707 17.4177 8.22963 16.897 8.93589 16.4105C10.1633 15.5677 11.449 14.8105 12.7346 14.0636C13.1941 13.793 13.7015 13.6662 14.2055 13.6662C14.5449 13.6662 14.874 13.745 15.1929 13.8546C15.378 13.8067 15.5529 13.7347 15.7483 13.7347C17.6065 13.7347 19.475 13.7553 21.3333 13.7793C22.7904 13.7998 24.2543 13.8067 25.7183 13.8101C25.6977 11.3022 25.6497 8.79432 25.6429 6.283C25.6394 5.76909 25.8349 5.31685 26.1023 4.91258C26.0131 4.64192 25.9274 4.36783 25.9274 4.07661C25.9274 2.47664 27.2337 1.25696 28.8039 1.20214C32.0816 1.09593 35.3523 1.13019 38.63 1.13704C39.8882 1.14389 41.1499 1.10278 42.4081 1.07195C43.6492 1.03426 44.8869 1 46.1246 1C46.44 1 46.752 1.00343 47.0674 1.00685C48.552 1.03426 49.7828 2.21968 49.7828 3.7203C49.7828 4.3644 49.5222 4.92971 49.1417 5.39223C49.3131 7.1361 49.4194 8.87997 49.5428 10.6307C49.6148 11.6654 49.6971 12.6966 49.7588 13.7347C51.7645 13.7655 53.7701 13.7964 55.7792 13.8443C58.306 13.9094 60.8294 13.8957 63.3561 13.8957C68.3926 13.8957 73.4324 13.7313 78.4689 13.6525C78.4792 13.6525 78.4929 13.6525 78.5032 13.6525C78.7603 13.6525 78.9969 13.7279 79.23 13.8067C79.5214 13.7964 79.8094 13.7621 80.1008 13.7621C80.2791 13.7621 80.4574 13.7656 80.6357 13.769C83.7727 13.8409 87.0846 14.4953 89.5771 16.5235C90.5988 17.3526 91.4765 18.4284 92.2274 19.5077C92.9988 20.6074 93.6056 21.8477 94.0342 23.1187C94.905 25.6814 95.1347 28.4291 95.3198 31.1186C95.5118 33.8595 95.5324 36.6072 95.6627 39.348C95.9061 44.6071 96.6638 49.825 96.8695 55.084C96.9758 57.6741 96.9964 60.2642 96.9895 62.8578C96.9827 64.1494 96.9689 65.4479 96.9758 66.7464C96.9724 67.9112 97.0478 69.0898 96.9484 70.2581ZM65.1561 32.3554C65.1287 32.561 65.1012 32.7666 65.0738 32.9721C65.1047 32.7494 65.1321 32.5302 65.1629 32.3075C65.1595 32.3212 65.1561 32.3383 65.1561 32.3554ZM30.7856 6.86201C30.7856 6.92026 30.7856 6.97507 30.7856 7.03332C30.765 9.78103 30.7273 12.5287 30.741 15.2764C30.7547 17.846 30.8336 20.4156 30.8679 22.9851C30.9022 25.4348 30.9193 27.8878 30.9604 30.3375C30.981 31.564 30.9947 32.7837 31.0324 34.0068C31.0462 34.4213 31.0804 34.8359 31.1147 35.247C32.1364 35.3018 33.1512 35.2916 34.1695 35.2847C34.0324 34.1781 33.8849 33.0715 33.7889 31.958C33.6518 30.2724 33.5832 28.5765 33.5901 26.884C33.6038 23.3791 33.6552 19.8674 33.8472 16.3625C33.8849 15.7424 34.1284 15.1908 34.4849 14.7351C34.8758 13.6936 35.8426 12.8337 36.9774 12.8337C37.0357 12.8337 37.0906 12.8371 37.1488 12.8405C39.5934 13.0289 42.0413 13.1489 44.4926 13.1694C44.3589 10.9356 44.1635 8.70524 43.9132 6.47829C42.0653 6.5057 40.2173 6.53311 38.3694 6.56394C35.8392 6.60848 33.3124 6.7421 30.7856 6.86201ZM59.3894 67.0752C59.4305 65.3451 59.4751 63.6183 59.4408 61.8882C59.3997 59.2535 59.3482 56.6155 59.362 53.9808C59.3825 51.4044 59.4031 48.8211 59.4134 46.2379C59.4271 43.5895 59.3688 40.9412 59.4134 38.2997C59.4614 35.5965 59.8557 32.8967 60.2294 30.221C60.2225 30.2827 60.2122 30.3477 60.2054 30.4128C60.2157 30.3238 60.2294 30.2313 60.2397 30.1422C60.2499 30.0702 60.2602 29.9983 60.2705 29.9298C60.4145 28.7923 60.5585 27.6583 60.7676 26.5345C60.9733 25.4211 61.1688 24.287 61.5836 23.2318C61.8922 22.4404 62.2282 21.7243 62.6979 21.0185C63.1196 20.3779 63.6064 19.7543 64.1207 19.1856C64.2407 19.0554 64.3813 18.9492 64.5047 18.8224C63.987 18.8224 63.4693 18.8361 62.9516 18.8361C60.4248 18.8361 57.8946 18.8019 55.3609 18.8156C52.6764 18.8224 49.9988 18.867 47.3177 18.8875C46.8994 18.891 46.5189 18.7642 46.1692 18.5826C45.9258 18.6546 45.6823 18.7368 45.4183 18.7402C43.2755 18.7745 41.1362 18.7334 38.9968 18.6409C38.9179 19.8194 38.8254 20.9946 38.7911 22.1731C38.7465 23.8074 38.7465 25.4485 38.7705 27.0827C38.7911 28.7512 38.8425 30.4163 39.0208 32.0711C39.1854 33.6402 39.3911 35.1956 39.5762 36.7545C39.6551 37.4055 39.2539 38.1729 38.8048 38.6114C38.7054 38.7108 38.5751 38.7588 38.462 38.841C38.3317 39.259 38.1362 39.653 37.8208 39.9682C37.2723 40.5163 36.6277 40.7048 35.8769 40.7733C35.0986 40.8384 34.3135 40.8315 33.5284 40.8178C33.1924 40.8178 32.8495 40.811 32.5135 40.811C31.2073 40.8178 29.901 40.8247 28.5914 40.8041C27.0485 40.7767 25.756 39.5331 25.756 37.9708C25.756 37.611 25.8349 37.265 25.9686 36.9395C25.9686 36.9121 25.9686 36.8881 25.9686 36.8607C25.9823 35.7404 26.0543 34.6269 26.0269 33.5134C25.9994 32.2424 25.9686 30.9781 25.9412 29.7105C25.8897 27.2917 25.8554 24.866 25.804 22.4506C25.7766 21.2652 25.7869 20.0798 25.7663 18.891C22.427 18.9561 19.0876 19.0931 15.7483 19.1342C15.7346 19.1411 15.7311 19.1548 15.7174 19.1616C14.3323 19.9496 12.9438 20.7273 11.6341 21.6387C11.0273 22.18 10.4856 22.7556 9.96101 23.3723C9.96787 23.3654 9.97129 23.3586 9.97815 23.3517C9.95415 23.3825 9.92672 23.4168 9.90273 23.4476C9.4056 24.1157 8.99075 24.8249 8.63076 25.5752C7.7565 27.994 7.20794 30.4848 6.83081 33.0235C6.69367 34.1473 6.5771 35.271 6.52567 36.3982C6.38853 39.2178 6.34739 42.0375 6.33368 44.8572C6.32682 47.6117 6.43996 50.3731 6.45367 53.1311C6.47767 57.866 6.63538 62.6008 6.79309 67.3322C9.66616 67.3048 12.5358 67.2877 15.4089 67.2774C18.9882 67.2637 22.5641 67.2568 26.1434 67.2911C28.9651 67.3185 31.7936 67.3562 34.6152 67.3699C37.4643 67.3904 40.3065 67.3185 43.1521 67.2774C45.8675 67.2431 48.5863 67.2705 51.3016 67.2123C53.9964 67.1575 56.6912 67.089 59.3894 67.0752ZM92.0354 67.2431C92.0285 66.5476 92.0217 65.8556 92.0148 65.1635C92.0079 63.3648 91.9874 61.573 91.9702 59.7743C91.9359 57.078 91.8125 54.3988 91.5862 51.7162C91.3737 49.1809 91.0651 46.649 90.9143 44.1137C90.7565 41.4516 90.6503 38.7896 90.5714 36.1207C90.4926 33.6436 90.3828 31.17 90.0948 28.7101C89.8686 27.2917 89.5874 25.9281 89.1006 24.5851C88.7372 23.8005 88.3052 23.0673 87.7978 22.365C87.3349 21.81 86.8378 21.2858 86.2892 20.8096C86.0287 20.6383 85.7612 20.4807 85.4801 20.3402C84.6916 20.0627 83.879 19.8434 83.0562 19.6995C81.4105 19.5316 79.7683 19.5453 78.1157 19.5967C76.5249 19.6413 74.9273 19.7406 73.3467 19.9188C72.5822 20.0421 71.8519 20.2306 71.1251 20.4978C70.8165 20.6485 70.5182 20.8096 70.2268 20.9946C69.2943 21.7689 68.4131 22.6391 67.6349 23.5675C67.2852 24.0575 66.9766 24.5543 66.7126 25.0887C65.8624 27.3842 65.5126 29.8749 65.1595 32.2869C64.9504 33.8766 64.7515 35.4732 64.6521 37.0697C64.4807 39.6975 64.5012 42.3287 64.4944 44.9565C64.4875 47.5261 64.5287 50.0956 64.539 52.6652C64.5527 55.293 64.539 57.9311 64.5904 60.5589C64.6315 62.7241 64.6898 64.8928 64.6898 67.0581C68.684 67.0513 72.6816 67.0444 76.6758 67.041C77.9752 67.041 79.2746 67.0307 80.574 67.0307C81.9831 67.0307 83.3887 67.041 84.7978 67.0855C87.2149 67.1575 89.6251 67.226 92.0354 67.2431ZM60.2328 30.2244C60.2362 30.197 60.2397 30.1696 60.2431 30.1422C60.2465 30.1113 60.2499 30.0839 60.2534 30.0531C60.2465 30.1113 60.2397 30.1662 60.2328 30.2244ZM84.7876 30.0531C84.0539 29.9949 83.3236 30.0188 82.5933 30.0325C81.5374 30.0394 80.4848 30.06 79.4288 30.06C77.1592 30.06 74.893 29.9298 72.6233 29.8818C72.6062 29.8818 72.5856 29.8818 72.5685 29.8818C71.0976 29.8818 69.8805 31.1734 69.8805 32.6227C69.8805 34.1301 71.1251 35.343 72.6233 35.3635C74.893 35.3978 77.1592 35.3909 79.4288 35.4355C80.0631 35.456 80.694 35.4492 81.3282 35.4423C82.4836 35.4355 83.6356 35.4286 84.791 35.528C86.2824 35.6582 87.5269 34.1849 87.5269 32.7871C87.5269 32.0676 87.2355 31.3653 86.7281 30.8514C86.1761 30.3101 85.5315 30.1113 84.7876 30.0531Z" fill="#5C7677" stroke="#5C7677" stroke-width="0.5"/>
</svg>
