<svg width="34" height="26" viewBox="0 0 34 26" fill="none" xmlns="http://www.w3.org/2000/svg">
<path d="M20.7671 10.5803C20.7637 10.6032 20.7614 10.626 20.758 10.6489C20.7557 10.6626 20.7534 10.6763 20.7523 10.6912C20.7568 10.6546 20.7614 10.6169 20.7671 10.5803ZM32.9828 24.1022C32.9657 24.3285 32.9062 24.5217 32.7405 24.6874C32.5839 24.8439 32.3737 24.9308 32.1542 24.9308C32.0822 24.9308 32.0137 24.9068 31.944 24.8862C31.8228 24.9445 31.6914 24.9822 31.5497 24.9822C30.9874 24.9845 30.4217 24.9445 29.8594 24.9228C29.3006 24.9056 28.7429 24.8656 28.1852 24.8416C27.6047 24.8154 27.0207 24.8222 26.4401 24.8222C25.8493 24.8199 25.255 24.8176 24.6642 24.8176C22.7762 24.8085 20.8883 24.8039 19.0003 24.8416C18.0746 24.8588 17.1478 24.8679 16.2198 24.8748C15.3078 24.8794 14.3959 24.9056 13.4816 24.9125C12.6291 24.9216 11.7765 24.9171 10.9228 24.9125C9.88056 24.9079 8.83716 24.9034 7.7949 24.9194C6.85664 24.9331 5.91838 24.9194 4.97669 24.9331C3.99386 24.9479 3.01217 24.9925 2.02934 25.0165C1.51507 25.0314 1.08651 24.5788 1.08651 24.0759C1.08651 23.9457 1.11279 23.8234 1.16194 23.7114C1.15051 23.108 1.14708 22.5046 1.12651 21.8989C1.10479 21.22 1.09108 20.54 1.07851 19.8612C1.0568 18.4875 1.02823 17.1139 1.00765 15.7402C0.993941 14.8351 0.998512 13.9242 1.02251 13.0191C1.05108 12.0328 1.13451 11.0306 1.3345 10.0626C1.42707 9.6192 1.52307 9.17235 1.67278 8.74379C1.76763 8.46951 1.87049 8.18952 2.0202 7.93924C2.13448 7.7461 2.26019 7.56097 2.39162 7.38154C2.57218 7.13583 2.75618 6.89127 2.97446 6.6787C3.17902 6.47642 3.40988 6.30271 3.6453 6.14043C4.05443 5.8593 4.48299 5.60673 4.91155 5.3576C5.06469 5.26731 5.23383 5.22503 5.40182 5.22503C5.51496 5.22503 5.62467 5.25131 5.73096 5.28788C5.79267 5.27188 5.85095 5.24789 5.91609 5.24789C6.53551 5.24789 7.15835 5.25474 7.77776 5.26274C8.26346 5.2696 8.75145 5.27188 9.23943 5.27303C9.23258 4.43648 9.21658 3.59993 9.21429 2.76224C9.21315 2.59081 9.27829 2.43996 9.36743 2.30511C9.33772 2.21482 9.30915 2.1234 9.30915 2.02626C9.30915 1.49256 9.74456 1.08571 10.268 1.06743C11.3605 1.032 12.4508 1.04343 13.5433 1.04571C13.9627 1.048 14.3833 1.03428 14.8027 1.024C15.2164 1.01143 15.629 1 16.0415 1C16.1467 1 16.2507 1.00114 16.3558 1.00229C16.8507 1.01143 17.2609 1.40685 17.2609 1.9074C17.2609 2.12226 17.1741 2.31082 17.0472 2.4651C17.1044 3.0468 17.1398 3.6285 17.1809 4.21248C17.2049 4.55762 17.2324 4.90161 17.2529 5.24789C17.9215 5.25817 18.59 5.26846 19.2597 5.28446C20.102 5.30617 20.9431 5.3016 21.7854 5.3016C23.4642 5.3016 25.1441 5.24674 26.823 5.22046C26.8264 5.22046 26.831 5.22046 26.8344 5.22046C26.9201 5.22046 26.999 5.2456 27.0767 5.27188C27.1738 5.26846 27.2698 5.25703 27.3669 5.25703C27.4264 5.25703 27.4858 5.25817 27.5452 5.25931C28.5909 5.28331 29.6949 5.50159 30.5257 6.17815C30.8663 6.45471 31.1588 6.81356 31.4091 7.17355C31.6663 7.5404 31.8685 7.9541 32.0114 8.37809C32.3017 9.23292 32.3782 10.1495 32.44 11.0466C32.5039 11.9608 32.5108 12.8774 32.5542 13.7917C32.6354 15.5459 32.8879 17.2864 32.9565 19.0407C32.9919 19.9046 32.9988 20.7686 32.9965 21.6337C32.9942 22.0646 32.9896 22.4977 32.9919 22.9308C32.9908 23.3194 33.0159 23.7125 32.9828 24.1022ZM22.3854 11.4591C22.3762 11.5277 22.3671 11.5963 22.3579 11.6649C22.3682 11.5906 22.3774 11.5174 22.3876 11.4431C22.3865 11.4477 22.3854 11.4534 22.3854 11.4591ZM10.9285 2.95538C10.9285 2.9748 10.9285 2.99309 10.9285 3.01252C10.9217 3.92906 10.9091 4.84561 10.9137 5.76216C10.9182 6.61928 10.9445 7.4764 10.956 8.33352C10.9674 9.15064 10.9731 9.9689 10.9868 10.786C10.9937 11.1952 10.9982 11.602 11.0108 12.01C11.0154 12.1483 11.0268 12.2866 11.0382 12.4237C11.3788 12.442 11.7171 12.4385 12.0565 12.4363C12.0108 12.0671 11.9616 11.698 11.9296 11.3266C11.8839 10.7643 11.8611 10.1986 11.8634 9.63405C11.8679 8.46494 11.8851 7.29354 11.9491 6.12443C11.9616 5.91758 12.0428 5.73359 12.1616 5.58159C12.2919 5.23417 12.6142 4.94732 12.9925 4.94732C13.0119 4.94732 13.0302 4.94847 13.0496 4.94961C13.8645 5.01246 14.6804 5.05246 15.4976 5.05932C15.453 4.3142 15.3878 3.57022 15.3044 2.82738C14.6884 2.83652 14.0724 2.84566 13.4565 2.85595C12.6131 2.87081 11.7708 2.91538 10.9285 2.95538ZM20.4631 23.0405C20.4768 22.4634 20.4917 21.8874 20.4803 21.3103C20.4666 20.4315 20.4494 19.5515 20.454 18.6727C20.4608 17.8133 20.4677 16.9516 20.4711 16.0899C20.4757 15.2065 20.4563 14.3231 20.4711 13.4419C20.4871 12.5403 20.6186 11.6397 20.7431 10.7472C20.7408 10.7677 20.7374 10.7895 20.7351 10.8112C20.7386 10.7815 20.7431 10.7506 20.7466 10.7209C20.75 10.6969 20.7534 10.6729 20.7568 10.65C20.8048 10.2706 20.8528 9.89233 20.9225 9.51748C20.9911 9.14607 21.0563 8.76779 21.1945 8.4158C21.2974 8.15181 21.4094 7.91296 21.566 7.67753C21.7065 7.46383 21.8688 7.25583 22.0402 7.06612C22.0802 7.02269 22.1271 6.98727 22.1682 6.94498C21.9957 6.94498 21.8231 6.94955 21.6505 6.94955C20.8083 6.94955 19.9649 6.93813 19.1203 6.9427C18.2255 6.94498 17.3329 6.95984 16.4392 6.9667C16.2998 6.96784 16.173 6.92555 16.0564 6.86498C15.9753 6.88898 15.8941 6.91641 15.8061 6.91755C15.0918 6.92898 14.3787 6.91527 13.6656 6.88441C13.6393 7.27754 13.6085 7.66953 13.597 8.06267C13.5822 8.6078 13.5822 9.15521 13.5902 9.70034C13.597 10.2569 13.6142 10.8123 13.6736 11.3643C13.7285 11.8877 13.797 12.4065 13.8587 12.9265C13.885 13.1437 13.7513 13.3997 13.6016 13.5459C13.5685 13.5791 13.525 13.5951 13.4873 13.6225C13.4439 13.7619 13.3787 13.8934 13.2736 13.9985C13.0908 14.1814 12.8759 14.2442 12.6256 14.2671C12.3662 14.2888 12.1045 14.2865 11.8428 14.2819C11.7308 14.2819 11.6165 14.2796 11.5045 14.2796C11.0691 14.2819 10.6337 14.2842 10.1971 14.2774C9.68285 14.2682 9.252 13.8534 9.252 13.3322C9.252 13.2122 9.27829 13.0968 9.32286 12.9882C9.32286 12.9791 9.32286 12.9711 9.32286 12.962C9.32743 12.5883 9.35143 12.2168 9.34229 11.8454C9.33314 11.4214 9.32286 10.9997 9.31372 10.5769C9.29657 9.77005 9.28515 8.96093 9.268 8.15524C9.25886 7.75982 9.26229 7.3644 9.25543 6.96784C8.14232 6.98955 7.02921 7.03527 5.91609 7.04898C5.91152 7.05127 5.91038 7.05584 5.90581 7.05812C5.44411 7.32097 4.98126 7.58039 4.5447 7.88439C4.34242 8.06495 4.16186 8.25695 3.987 8.46266C3.98929 8.46037 3.99043 8.45808 3.99272 8.4558C3.98472 8.46608 3.97557 8.47751 3.96758 8.4878C3.80187 8.71065 3.66358 8.94721 3.54359 9.19749C3.25217 10.0043 3.06931 10.8352 2.9436 11.682C2.89789 12.0568 2.85903 12.4317 2.84189 12.8077C2.79618 13.7482 2.78246 14.6888 2.77789 15.6293C2.77561 16.5482 2.81332 17.4693 2.81789 18.3892C2.82589 19.9686 2.87846 21.548 2.93103 23.1263C3.88872 23.1171 4.84527 23.1114 5.80295 23.108C6.99606 23.1034 8.18803 23.1011 9.38114 23.1125C10.3217 23.1217 11.2645 23.1343 12.2051 23.1388C13.1548 23.1457 14.1022 23.1217 15.0507 23.108C15.9558 23.0965 16.8621 23.1057 17.7672 23.0863C18.6655 23.068 19.5637 23.0451 20.4631 23.0405ZM31.3451 23.0965C31.3428 22.8646 31.3405 22.6337 31.3383 22.4029C31.336 21.8029 31.3291 21.2052 31.3234 20.6052C31.312 19.7058 31.2708 18.8121 31.1954 17.9173C31.1246 17.0716 31.0217 16.227 30.9714 15.3813C30.9188 14.4934 30.8834 13.6054 30.8571 12.7151C30.8309 11.8888 30.7943 11.0637 30.6983 10.2432C30.6229 9.77005 30.5291 9.3152 30.3669 8.86722C30.2457 8.60551 30.1017 8.36094 29.9326 8.12667C29.7783 7.94153 29.6126 7.76667 29.4297 7.60782C29.3429 7.55068 29.2537 7.49811 29.16 7.45125C28.8972 7.35869 28.6263 7.28554 28.3521 7.23755C27.8035 7.18155 27.2561 7.18612 26.7052 7.20326C26.175 7.21812 25.6424 7.25126 25.1156 7.31069C24.8607 7.35183 24.6173 7.41468 24.375 7.50382C24.2722 7.55411 24.1727 7.60782 24.0756 7.66953C23.7648 7.92781 23.471 8.21809 23.2116 8.5278C23.0951 8.69122 22.9922 8.85693 22.9042 9.03521C22.6208 9.80091 22.5042 10.6317 22.3865 11.4363C22.3168 11.9666 22.2505 12.4991 22.2174 13.0317C22.1602 13.9082 22.1671 14.7859 22.1648 15.6625C22.1625 16.5196 22.1762 17.3767 22.1797 18.2338C22.1842 19.1104 22.1797 19.9903 22.1968 20.8669C22.2105 21.5892 22.2299 22.3126 22.2299 23.0348C23.5613 23.0325 24.8939 23.0303 26.2253 23.0291C26.6584 23.0291 27.0915 23.0257 27.5247 23.0257C27.9944 23.0257 28.4629 23.0291 28.9326 23.044C29.7383 23.068 30.5417 23.0908 31.3451 23.0965ZM20.7443 10.7483C20.7454 10.7392 20.7465 10.73 20.7477 10.7209C20.7488 10.7106 20.75 10.7015 20.7511 10.6912C20.7488 10.7106 20.7465 10.7289 20.7443 10.7483ZM28.9292 10.6912C28.6846 10.6717 28.4412 10.6797 28.1978 10.6843C27.8458 10.6866 27.4949 10.6935 27.143 10.6935C26.3864 10.6935 25.631 10.65 24.8744 10.634C24.8687 10.634 24.8619 10.634 24.8562 10.634C24.3659 10.634 23.9602 11.0649 23.9602 11.5483C23.9602 12.0511 24.375 12.4557 24.8744 12.4625C25.631 12.474 26.3864 12.4717 27.143 12.4865C27.3544 12.4934 27.5647 12.4911 27.7761 12.4888C28.1612 12.4865 28.5452 12.4843 28.9303 12.5174C29.4275 12.5608 29.8423 12.0694 29.8423 11.6031C29.8423 11.3631 29.7452 11.1289 29.576 10.9574C29.392 10.7769 29.1772 10.7106 28.9292 10.6912Z" fill="#5C7677" stroke="#5C7677" stroke-width="0.5"/>
</svg>
