<svg width="20" height="16" viewBox="0 0 20 16" fill="none" xmlns="http://www.w3.org/2000/svg">
<path d="M15.2 0H4C1.7944 0 0 1.7944 0 4V15.2C0 15.6424 0.3584 16 0.8 16C1.2416 16 1.6 15.6424 1.6 15.2V13.6H17.6V15.2C17.6 15.6424 17.9576 16 18.4 16C18.8424 16 19.2 15.6424 19.2 15.2V4C19.2 1.7944 17.4056 0 15.2 0ZM4 1.6H15.2C16.5232 1.6 17.6 2.6768 17.6 4V8.8H16C16 7.0352 14.5648 5.6 12.8 5.6H12C11.0448 5.6 10.1872 6.0208 9.6 6.6856C9.0128 6.02 8.1552 5.6 7.2 5.6H6.4C4.6352 5.6 3.2 7.0352 3.2 8.8H1.6V4C1.6 2.6768 2.6768 1.6 4 1.6ZM10.4 8.8C10.4 7.9176 11.1176 7.2 12 7.2H12.8C13.6824 7.2 14.4 7.9176 14.4 8.8H10.4ZM4.8 8.8C4.8 7.9176 5.5176 7.2 6.4 7.2H7.2C8.0824 7.2 8.8 7.9176 8.8 8.8H4.8ZM1.6 12V10.4H17.6V12H1.6Z" fill="#3D4F50"/>
</svg>
