<svg width="27" height="27" viewBox="0 0 27 27" fill="none" xmlns="http://www.w3.org/2000/svg">
<path d="M22.8919 2.18018H19.6216V0H17.4414V2.18018H8.72072V0H6.54054V2.18018H3.27027C2.40294 2.18018 1.57113 2.52473 0.95784 3.13802C0.344545 3.75131 0 4.58312 0 5.45045L0 26.1622H26.1622V5.45045C26.1622 4.58312 25.8176 3.75131 25.2043 3.13802C24.591 2.52473 23.7592 2.18018 22.8919 2.18018ZM2.18018 5.45045C2.18018 5.16134 2.29503 4.88407 2.49946 4.67964C2.70389 4.47521 2.98116 4.36036 3.27027 4.36036H22.8919C23.181 4.36036 23.4583 4.47521 23.6627 4.67964C23.8671 4.88407 23.982 5.16134 23.982 5.45045V8.72072H2.18018V5.45045ZM2.18018 23.982V10.9009H23.982V23.982H2.18018Z" fill="#3D4F50"/>
<path d="M18.5308 14.1712H16.3506V16.3514H18.5308V14.1712Z" fill="#3D4F50"/>
<path d="M14.1704 14.1712H11.9902V16.3514H14.1704V14.1712Z" fill="#3D4F50"/>
<path d="M9.81006 14.1712H7.62988V16.3514H9.81006V14.1712Z" fill="#3D4F50"/>
<path d="M18.5308 18.5315H16.3506V20.7117H18.5308V18.5315Z" fill="#3D4F50"/>
<path d="M14.1704 18.5315H11.9902V20.7117H14.1704V18.5315Z" fill="#3D4F50"/>
<path d="M9.81006 18.5315H7.62988V20.7117H9.81006V18.5315Z" fill="#3D4F50"/>
</svg>
