<svg width="36" height="36" viewBox="0 0 36 36" fill="none" xmlns="http://www.w3.org/2000/svg">
<g clip-path="url(#clip0_233_1422)">
<path d="M21.1838 18.0004L35.3404 3.8438C36.2199 2.96502 36.2199 1.53916 35.3404 0.660381C34.4608 -0.21915 33.0365 -0.21915 32.1569 0.660381L18.0004 14.8169L3.84307 0.660381C2.96354 -0.21915 1.53918 -0.21915 0.659649 0.660381C-0.219883 1.53916 -0.219883 2.96502 0.659649 3.8438L14.817 18.0004L0.659649 32.1569C-0.219883 33.0357 -0.219883 34.4616 0.659649 35.3403C1.09941 35.7793 1.67576 35.9992 2.25136 35.9992C2.82696 35.9992 3.40331 35.7793 3.84307 35.3396L18.0004 21.183L32.1569 35.3396C32.5967 35.7793 33.173 35.9992 33.7486 35.9992C34.3242 35.9992 34.9006 35.7793 35.3404 35.3396C36.2199 34.4608 36.2199 33.0349 35.3404 32.1562L21.1838 18.0004Z" fill="#FD5F54"/>
</g>
<defs>
<clipPath id="clip0_233_1422">
<rect width="36" height="36" fill="white"/>
</clipPath>
</defs>
</svg>
