<svg width="32" height="32" viewBox="0 0 32 32" fill="none" xmlns="http://www.w3.org/2000/svg">
<g clip-path="url(#clip0_276_1950)">
<path d="M18.83 16.0004L31.4136 3.4168C32.1954 2.63566 32.1954 1.36823 31.4136 0.587087C30.6318 -0.194719 29.3657 -0.194719 28.5839 0.587087L16.0003 13.1707L3.41606 0.587087C2.63426 -0.194719 1.36816 -0.194719 0.586354 0.587087C-0.195451 1.36823 -0.195451 2.63566 0.586354 3.4168L13.1706 16.0004L0.586354 28.584C-0.195451 29.3651 -0.195451 30.6326 0.586354 31.4137C0.977257 31.8039 1.48957 31.9994 2.00121 31.9994C2.51285 31.9994 3.02516 31.8039 3.41606 31.413L16.0003 18.8294L28.5839 31.413C28.9748 31.8039 29.4871 31.9994 29.9988 31.9994C30.5104 31.9994 31.0227 31.8039 31.4136 31.413C32.1954 30.6319 32.1954 29.3645 31.4136 28.5833L18.83 16.0004Z" fill="#FD5F54"/>
</g>
<defs>
<clipPath id="clip0_276_1950">
<rect width="32" height="32" fill="white"/>
</clipPath>
</defs>
</svg>
