<svg width="43" height="32" viewBox="0 0 43 32" fill="none" xmlns="http://www.w3.org/2000/svg">
<path d="M32 0H10.6667C4.784 0 0 4.784 0 10.6667V26.6667C0 29.6071 2.39289 32 5.33333 32H37.3333C40.2738 32 42.6667 29.6071 42.6667 26.6667V10.6667C42.6667 4.784 37.8827 0 32 0ZM3.55556 26.6667V10.6667C3.55556 6.74489 6.74489 3.55556 10.6667 3.55556C14.5884 3.55556 17.7778 6.74489 17.7778 10.6667V26.6667C17.7778 27.648 16.9796 28.4444 16 28.4444H5.33333C4.35378 28.4444 3.55556 27.648 3.55556 26.6667ZM39.1111 26.6667C39.1111 27.648 38.3147 28.4444 37.3333 28.4444H21.0276C21.2249 27.888 21.3333 27.2907 21.3333 26.6667V10.6667C21.3333 7.93778 20.3022 5.44356 18.6098 3.55556H32C35.9218 3.55556 39.1111 6.74489 39.1111 10.6667V26.6667ZM35.5556 12.4444V16C35.5556 16.9813 34.7609 17.7778 33.7778 17.7778C32.7947 17.7778 32 16.9813 32 16V14.2222H26.6667C25.6836 14.2222 24.8889 13.4258 24.8889 12.4444C24.8889 11.4631 25.6836 10.6667 26.6667 10.6667H33.7778C34.7609 10.6667 35.5556 11.4631 35.5556 12.4444ZM14.2222 12.4444C14.2222 13.4258 13.4258 14.2222 12.4444 14.2222H8.88889C7.90756 14.2222 7.11111 13.4258 7.11111 12.4444C7.11111 11.4631 7.90756 10.6667 8.88889 10.6667H12.4444C13.4258 10.6667 14.2222 11.4631 14.2222 12.4444Z" fill="white"/>
</svg>
