<svg width="32" height="32" viewBox="0 0 32 32" fill="none" xmlns="http://www.w3.org/2000/svg">
<path d="M16 0C7.1776 0 0 7.17731 0 15.9991C0 24.8211 7.1776 31.9984 16 31.9984C24.8224 31.9984 32 24.8211 32 15.9991C32 7.17731 24.8224 0 16 0ZM16 29.0894C8.78167 29.0894 2.90909 23.2172 2.90909 15.9992C2.90909 8.78129 8.78167 2.90909 16 2.90909C23.2183 2.90909 29.0909 8.78129 29.0909 15.9991C29.0909 23.2173 23.2183 29.0894 16 29.0894Z" fill="white"/>
<path d="M16.0004 12.606C15.1971 12.606 14.5459 13.2572 14.5459 14.0605V23.7558C14.5459 24.5591 15.1971 25.2104 16.0004 25.2104C16.8037 25.2104 17.455 24.5591 17.455 23.7558V14.0605C17.455 13.2573 16.8037 12.606 16.0004 12.606Z" fill="white"/>
<path d="M16.0004 6.78809C15.6174 6.78809 15.243 6.94324 14.9716 7.21378C14.701 7.48433 14.5459 7.8596 14.5459 8.24263C14.5459 8.62566 14.701 8.99996 14.9716 9.27148C15.2421 9.54203 15.6174 9.69718 16.0004 9.69718C16.3835 9.69718 16.7578 9.54203 17.0292 9.27148C17.2997 8.99996 17.455 8.62566 17.455 8.24263C17.455 7.8596 17.2997 7.48433 17.0292 7.21378C16.7578 6.94314 16.3835 6.78809 16.0004 6.78809Z" fill="white"/>
</svg>
