<svg width="32" height="32" viewBox="0 0 32 32" fill="none" xmlns="http://www.w3.org/2000/svg">
<path d="M5.33301 15.9998C5.33301 16.3535 5.47348 16.6926 5.72353 16.9426C5.97358 17.1927 6.31272 17.3332 6.66634 17.3332H16.7863L13.7197 20.3865C13.5947 20.5105 13.4955 20.6579 13.4278 20.8204C13.3601 20.9829 13.3253 21.1572 13.3253 21.3332C13.3253 21.5092 13.3601 21.6835 13.4278 21.8459C13.4955 22.0084 13.5947 22.1559 13.7197 22.2798C13.8436 22.4048 13.9911 22.504 14.1536 22.5717C14.3161 22.6394 14.4903 22.6742 14.6663 22.6742C14.8424 22.6742 15.0166 22.6394 15.1791 22.5717C15.3416 22.504 15.4891 22.4048 15.613 22.2798L20.9463 16.9465C21.0677 16.8197 21.1629 16.6702 21.2263 16.5065C21.3597 16.1819 21.3597 15.8178 21.2263 15.4932C21.1629 15.3295 21.0677 15.18 20.9463 15.0532L15.613 9.71984C15.4887 9.59552 15.3411 9.4969 15.1787 9.42962C15.0162 9.36234 14.8422 9.32771 14.6663 9.32771C14.4905 9.32771 14.3164 9.36234 14.154 9.42962C13.9916 9.4969 13.844 9.59552 13.7197 9.71984C13.5954 9.84415 13.4967 9.99174 13.4295 10.1542C13.3622 10.3166 13.3276 10.4907 13.3276 10.6665C13.3276 10.8423 13.3622 11.0164 13.4295 11.1788C13.4967 11.3413 13.5954 11.4889 13.7197 11.6132L16.7863 14.6665H6.66634C6.31272 14.6665 5.97358 14.807 5.72353 15.057C5.47348 15.3071 5.33301 15.6462 5.33301 15.9998ZM22.6663 2.6665H9.33301C8.27214 2.6665 7.25473 3.08793 6.50458 3.83808C5.75444 4.58822 5.33301 5.60564 5.33301 6.6665V10.6665C5.33301 11.0201 5.47348 11.3593 5.72353 11.6093C5.97358 11.8594 6.31272 11.9998 6.66634 11.9998C7.01996 11.9998 7.3591 11.8594 7.60915 11.6093C7.8592 11.3593 7.99967 11.0201 7.99967 10.6665V6.6665C7.99967 6.31288 8.14015 5.97374 8.3902 5.7237C8.64025 5.47365 8.97939 5.33317 9.33301 5.33317H22.6663C23.02 5.33317 23.3591 5.47365 23.6092 5.7237C23.8592 5.97374 23.9997 6.31288 23.9997 6.6665V25.3332C23.9997 25.6868 23.8592 26.0259 23.6092 26.276C23.3591 26.526 23.02 26.6665 22.6663 26.6665H9.33301C8.97939 26.6665 8.64025 26.526 8.3902 26.276C8.14015 26.0259 7.99967 25.6868 7.99967 25.3332V21.3332C7.99967 20.9795 7.8592 20.6404 7.60915 20.3904C7.3591 20.1403 7.01996 19.9998 6.66634 19.9998C6.31272 19.9998 5.97358 20.1403 5.72353 20.3904C5.47348 20.6404 5.33301 20.9795 5.33301 21.3332V25.3332C5.33301 26.394 5.75444 27.4115 6.50458 28.1616C7.25473 28.9117 8.27214 29.3332 9.33301 29.3332H22.6663C23.7272 29.3332 24.7446 28.9117 25.4948 28.1616C26.2449 27.4115 26.6663 26.394 26.6663 25.3332V6.6665C26.6663 5.60564 26.2449 4.58822 25.4948 3.83808C24.7446 3.08793 23.7272 2.6665 22.6663 2.6665Z" fill="white"/>
</svg>
