<svg width="40" height="40" viewBox="0 0 40 40" fill="none" xmlns="http://www.w3.org/2000/svg">
<g clip-path="url(#clip0_581_2983)">
<rect width="40" height="40" rx="4" fill="#D9D9D9"/>
<path d="M15 8H12C10.9391 8 9.92172 8.42143 9.17157 9.17157C8.42143 9.92172 8 10.9391 8 12V15C8 16.0609 8.42143 17.0783 9.17157 17.8284C9.92172 18.5786 10.9391 19 12 19H15C16.0609 19 17.0783 18.5786 17.8284 17.8284C18.5786 17.0783 19 16.0609 19 15V12C19 10.9391 18.5786 9.92172 17.8284 9.17157C17.0783 8.42143 16.0609 8 15 8V8ZM17 15C17 15.5304 16.7893 16.0391 16.4142 16.4142C16.0391 16.7893 15.5304 17 15 17H12C11.4696 17 10.9609 16.7893 10.5858 16.4142C10.2107 16.0391 10 15.5304 10 15V12C10 11.4696 10.2107 10.9609 10.5858 10.5858C10.9609 10.2107 11.4696 10 12 10H15C15.5304 10 16.0391 10.2107 16.4142 10.5858C16.7893 10.9609 17 11.4696 17 12V15Z" fill="#FD5F54"/>
<path d="M28 8H25C23.9391 8 22.9217 8.42143 22.1716 9.17157C21.4214 9.92172 21 10.9391 21 12V15C21 16.0609 21.4214 17.0783 22.1716 17.8284C22.9217 18.5786 23.9391 19 25 19H28C29.0609 19 30.0783 18.5786 30.8284 17.8284C31.5786 17.0783 32 16.0609 32 15V12C32 10.9391 31.5786 9.92172 30.8284 9.17157C30.0783 8.42143 29.0609 8 28 8V8ZM30 15C30 15.5304 29.7893 16.0391 29.4142 16.4142C29.0391 16.7893 28.5304 17 28 17H25C24.4696 17 23.9609 16.7893 23.5858 16.4142C23.2107 16.0391 23 15.5304 23 15V12C23 11.4696 23.2107 10.9609 23.5858 10.5858C23.9609 10.2107 24.4696 10 25 10H28C28.5304 10 29.0391 10.2107 29.4142 10.5858C29.7893 10.9609 30 11.4696 30 12V15Z" fill="#FD5F54"/>
<path d="M15 21H12C10.9391 21 9.92172 21.4214 9.17157 22.1716C8.42143 22.9217 8 23.9391 8 25V28C8 29.0609 8.42143 30.0783 9.17157 30.8284C9.92172 31.5786 10.9391 32 12 32H15C16.0609 32 17.0783 31.5786 17.8284 30.8284C18.5786 30.0783 19 29.0609 19 28V25C19 23.9391 18.5786 22.9217 17.8284 22.1716C17.0783 21.4214 16.0609 21 15 21V21ZM17 28C17 28.5304 16.7893 29.0391 16.4142 29.4142C16.0391 29.7893 15.5304 30 15 30H12C11.4696 30 10.9609 29.7893 10.5858 29.4142C10.2107 29.0391 10 28.5304 10 28V25C10 24.4696 10.2107 23.9609 10.5858 23.5858C10.9609 23.2107 11.4696 23 12 23H15C15.5304 23 16.0391 23.2107 16.4142 23.5858C16.7893 23.9609 17 24.4696 17 25V28Z" fill="#FD5F54"/>
<path d="M28 21H25C23.9391 21 22.9217 21.4214 22.1716 22.1716C21.4214 22.9217 21 23.9391 21 25V28C21 29.0609 21.4214 30.0783 22.1716 30.8284C22.9217 31.5786 23.9391 32 25 32H28C29.0609 32 30.0783 31.5786 30.8284 30.8284C31.5786 30.0783 32 29.0609 32 28V25C32 23.9391 31.5786 22.9217 30.8284 22.1716C30.0783 21.4214 29.0609 21 28 21V21ZM30 28C30 28.5304 29.7893 29.0391 29.4142 29.4142C29.0391 29.7893 28.5304 30 28 30H25C24.4696 30 23.9609 29.7893 23.5858 29.4142C23.2107 29.0391 23 28.5304 23 28V25C23 24.4696 23.2107 23.9609 23.5858 23.5858C23.9609 23.2107 24.4696 23 25 23H28C28.5304 23 29.0391 23.2107 29.4142 23.5858C29.7893 23.9609 30 24.4696 30 25V28Z" fill="#FD5F54"/>
</g>
<defs>
<clipPath id="clip0_581_2983">
<rect width="40" height="40" fill="white"/>
</clipPath>
</defs>
</svg>
