<svg width="72" height="72" viewBox="0 0 72 72" fill="none" xmlns="http://www.w3.org/2000/svg">
<g clip-path="url(#clip0_413_1553)">
<path d="M52.4999 2.75098C49.1217 2.80352 45.8173 3.74654 42.9202 5.48479C40.0231 7.22304 37.636 9.69498 35.9999 12.651C34.3638 9.69498 31.9767 7.22304 29.0796 5.48479C26.1825 3.74654 22.878 2.80352 19.4999 2.75098C14.1147 2.98495 9.04099 5.34074 5.38722 9.30367C1.73345 13.2666 -0.203377 18.5146 -0.000125128 23.901C-0.000125128 44.226 32.8679 67.701 34.2659 68.697L35.9999 69.924L37.7339 68.697C39.1319 67.707 71.9999 44.226 71.9999 23.901C72.2031 18.5146 70.2663 13.2666 66.6125 9.30367C62.9588 5.34074 57.8851 2.98495 52.4999 2.75098ZM35.9999 62.538C26.2409 55.248 5.99988 37.338 5.99988 23.901C5.7948 20.1051 7.09897 16.3822 9.62796 13.5441C12.157 10.706 15.7056 8.98303 19.4999 8.75098C23.2942 8.98303 26.8428 10.706 29.3718 13.5441C31.9008 16.3822 33.205 20.1051 32.9999 23.901H38.9999C38.7948 20.1051 40.099 16.3822 42.628 13.5441C45.157 10.706 48.7056 8.98303 52.4999 8.75098C56.2942 8.98303 59.8428 10.706 62.3718 13.5441C64.9008 16.3822 66.205 20.1051 65.9999 23.901C65.9999 37.344 45.7589 55.248 35.9999 62.538Z" fill="#5C7677"/>
</g>
<defs>
<clipPath id="clip0_413_1553">
<rect width="72" height="72" fill="white"/>
</clipPath>
</defs>
</svg>
