<svg width="40" height="38" viewBox="0 0 40 38" fill="none" xmlns="http://www.w3.org/2000/svg">
<path d="M29.1664 0.528332C27.2897 0.557523 25.4539 1.08142 23.8444 2.04712C22.2349 3.01281 20.9087 4.38611 19.9998 6.02833C19.0908 4.38611 17.7647 3.01281 16.1552 2.04712C14.5457 1.08142 12.7099 0.557523 10.8331 0.528332C7.84134 0.658316 5.02261 1.96709 2.99274 4.16872C0.962867 6.37035 -0.11315 9.28587 -0.000232276 12.2783C-0.000232276 23.57 18.2598 36.6117 19.0364 37.165L19.9998 37.8467L20.9631 37.165C21.7398 36.615 39.9998 23.57 39.9998 12.2783C40.1127 9.28587 39.0367 6.37035 37.0068 4.16872C34.9769 1.96709 32.1582 0.658316 29.1664 0.528332V0.528332ZM19.9998 33.7433C14.5781 29.6933 3.3331 19.7433 3.3331 12.2783C3.21917 10.1695 3.94371 8.10122 5.34871 6.5245C6.7537 4.94778 8.72516 3.99058 10.8331 3.86167C12.941 3.99058 14.9125 4.94778 16.3175 6.5245C17.7225 8.10122 18.447 10.1695 18.3331 12.2783H21.6664C21.5525 10.1695 22.277 8.10122 23.682 6.5245C25.087 4.94778 27.0585 3.99058 29.1664 3.86167C31.2744 3.99058 33.2458 4.94778 34.6508 6.5245C36.0558 8.10122 36.7804 10.1695 36.6664 12.2783C36.6664 19.7467 25.4214 29.6933 19.9998 33.7433Z" fill="#FD5F54"/>
</svg>
