<svg width="18" height="18" viewBox="0 0 18 18" fill="none" xmlns="http://www.w3.org/2000/svg">
<path d="M16.4232 7.03537L11.3636 1.975C10.7373 1.35062 9.88911 1 9.0048 1C8.1205 1 7.27227 1.35062 6.64606 1.975L1.58636 7.03537C1.39986 7.22066 1.25201 7.44114 1.15135 7.68401C1.0507 7.92688 0.999259 8.18731 1.00001 8.45021V14.9988C1.00001 15.5296 1.21085 16.0386 1.58615 16.4139C1.96144 16.7892 2.47046 17 3.00121 17H15.0084C15.5392 17 16.0482 16.7892 16.4235 16.4139C16.7988 16.0386 17.0096 15.5296 17.0096 14.9988V8.45021C17.0103 8.18731 16.9589 7.92688 16.8583 7.68401C16.7576 7.44114 16.6097 7.22066 16.4232 7.03537ZM11.006 15.6659H7.0036V13.0416C7.0036 12.5109 7.21444 12.0019 7.58974 11.6266C7.96504 11.2513 8.47405 11.0404 9.0048 11.0404C9.53555 11.0404 10.0446 11.2513 10.4199 11.6266C10.7952 12.0019 11.006 12.5109 11.006 13.0416V15.6659ZM15.6755 14.9988C15.6755 15.1757 15.6052 15.3454 15.4801 15.4705C15.355 15.5956 15.1853 15.6659 15.0084 15.6659H12.3401V13.0416C12.3401 12.157 11.9887 11.3087 11.3632 10.6832C10.7377 10.0577 9.88939 9.7063 9.0048 9.7063C8.12022 9.7063 7.27186 10.0577 6.64637 10.6832C6.02087 11.3087 5.66947 12.157 5.66947 13.0416V15.6659H3.00121C2.82429 15.6659 2.65462 15.5956 2.52952 15.4705C2.40442 15.3454 2.33414 15.1757 2.33414 14.9988V8.45021C2.33476 8.27343 2.40498 8.10399 2.52959 7.9786L7.58929 2.92023C7.96531 2.54596 8.47426 2.33585 9.0048 2.33585C9.53535 2.33585 10.0443 2.54596 10.4203 2.92023L15.48 7.9806C15.6041 8.1055 15.6743 8.27412 15.6755 8.45021V14.9988Z" fill="#3D4F50" stroke="#3D4F50" stroke-width="0.25"/>
</svg>
