<svg width="32" height="32" viewBox="0 0 32 32" fill="none" xmlns="http://www.w3.org/2000/svg">
<g clip-path="url(#clip0_427_911)">
<path d="M30.828 12.0918L20.7147 1.97716C19.463 0.729141 17.7676 0.0283203 16 0.0283203C14.2325 0.0283203 12.537 0.729141 11.2853 1.97716L1.17202 12.0918C0.79925 12.4622 0.503709 12.9029 0.302526 13.3883C0.101343 13.8738 -0.00148053 14.3943 1.6106e-05 14.9198V28.0092C1.6106e-05 29.07 0.421443 30.0874 1.17159 30.8376C1.92173 31.5877 2.93915 32.0092 4.00002 32.0092H28C29.0609 32.0092 30.0783 31.5877 30.8284 30.8376C31.5786 30.0874 32 29.07 32 28.0092V14.9198C32.0015 14.3943 31.8987 13.8738 31.6975 13.3883C31.4963 12.9029 31.2008 12.4622 30.828 12.0918ZM20 29.3425H12V24.0972C12 23.0363 12.4214 22.0189 13.1716 21.2687C13.9217 20.5186 14.9392 20.0972 16 20.0972C17.0609 20.0972 18.0783 20.5186 18.8284 21.2687C19.5786 22.0189 20 23.0363 20 24.0972V29.3425ZM29.3333 28.0092C29.3333 28.3628 29.1929 28.7019 28.9428 28.952C28.6928 29.202 28.3536 29.3425 28 29.3425H22.6667V24.0972C22.6667 22.329 21.9643 20.6334 20.7141 19.3831C19.4638 18.1329 17.7681 17.4305 16 17.4305C14.2319 17.4305 12.5362 18.1329 11.286 19.3831C10.0357 20.6334 9.33335 22.329 9.33335 24.0972V29.3425H4.00002C3.64639 29.3425 3.30726 29.202 3.05721 28.952C2.80716 28.7019 2.66668 28.3628 2.66668 28.0092V14.9198C2.66792 14.5665 2.80827 14.2278 3.05735 13.9772L13.1707 3.86649C13.9223 3.11839 14.9396 2.69841 16 2.69841C17.0605 2.69841 18.0778 3.11839 18.8293 3.86649L28.9427 13.9812C29.1908 14.2308 29.3311 14.5678 29.3333 14.9198V28.0092Z" fill="#5C7677"/>
</g>
<defs>
<clipPath id="clip0_427_911">
<rect width="32" height="32" fill="white"/>
</clipPath>
</defs>
</svg>
