<svg width="33" height="32" viewBox="0 0 33 32" fill="none" xmlns="http://www.w3.org/2000/svg">
<path d="M16.123 2.88267C20.395 2.88267 20.9017 2.89867 22.5884 2.976C24.3324 3.056 26.1284 3.45333 27.399 4.724C28.6817 6.00667 29.067 7.78533 29.147 9.53467C29.2244 11.2213 29.2404 11.728 29.2404 16C29.2404 20.272 29.2244 20.7787 29.147 22.4653C29.0684 24.2 28.6617 26.0133 27.399 27.276C26.1164 28.5587 24.339 28.944 22.5884 29.024C20.9017 29.1013 20.395 29.1173 16.123 29.1173C11.851 29.1173 11.3444 29.1013 9.65771 29.024C7.93638 28.9453 6.09905 28.5293 4.84705 27.276C3.57105 26 3.17905 24.204 3.09905 22.4653C3.02171 20.7787 3.00571 20.272 3.00571 16C3.00571 11.728 3.02171 11.2213 3.09905 9.53467C3.17771 7.80667 3.58838 5.98267 4.84705 4.724C6.12705 3.444 7.91238 3.056 9.65771 2.976C11.3444 2.89867 11.851 2.88267 16.123 2.88267ZM16.123 0C11.7777 0 11.2324 0.0186667 9.52571 0.096C7.05238 0.209333 4.59638 0.897333 2.80838 2.68533C1.01371 4.48 0.33238 6.93067 0.219047 9.40267C0.141714 11.1093 0.123047 11.6547 0.123047 16C0.123047 20.3453 0.141714 20.8907 0.219047 22.5973C0.33238 25.068 1.02305 27.5307 2.80838 29.3147C4.60171 31.108 7.05638 31.7907 9.52571 31.904C11.2324 31.9813 11.7777 32 16.123 32C20.4684 32 21.0137 31.9813 22.7204 31.904C25.1924 31.7907 27.651 31.1013 29.4377 29.3147C31.2337 27.5187 31.9137 25.0693 32.027 22.5973C32.1044 20.8907 32.123 20.3453 32.123 16C32.123 11.6547 32.1044 11.1093 32.027 9.40267C31.9137 6.92933 31.2244 4.472 29.4377 2.68533C27.647 0.894667 25.1857 0.208 22.7204 0.096C21.0137 0.0186667 20.4684 0 16.123 0Z" fill="#F2F6F6"/>
<path d="M16.123 7.78369C11.5856 7.78369 7.90698 11.4624 7.90698 15.9997C7.90698 20.537 11.5856 24.2157 16.123 24.2157C20.6603 24.2157 24.339 20.537 24.339 15.9997C24.339 11.4624 20.6603 7.78369 16.123 7.78369ZM16.123 21.333C13.1776 21.333 10.7896 18.945 10.7896 15.9997C10.7896 13.0544 13.1776 10.6664 16.123 10.6664C19.0683 10.6664 21.4563 13.0544 21.4563 15.9997C21.4563 18.945 19.0683 21.333 16.123 21.333Z" fill="#F2F6F6"/>
<path d="M24.6644 9.37857C25.7248 9.37857 26.5844 8.51896 26.5844 7.45857C26.5844 6.39819 25.7248 5.53857 24.6644 5.53857C23.604 5.53857 22.7444 6.39819 22.7444 7.45857C22.7444 8.51896 23.604 9.37857 24.6644 9.37857Z" fill="#F2F6F6"/>
</svg>
