<svg width="32" height="32" viewBox="0 0 32 32" fill="none" xmlns="http://www.w3.org/2000/svg">
<g clip-path="url(#clip0_427_901)">
<path d="M31.9997 5.3335H9.33301V8.00016H31.9997V5.3335Z" fill="#5C7677"/>
<path d="M31.9997 14.6665H9.33301V17.3332H31.9997V14.6665Z" fill="#5C7677"/>
<path d="M31.9997 24H9.33301V26.6667H31.9997V24Z" fill="#5C7677"/>
<path d="M2.66667 9.33333C4.13943 9.33333 5.33333 8.13943 5.33333 6.66667C5.33333 5.19391 4.13943 4 2.66667 4C1.19391 4 0 5.19391 0 6.66667C0 8.13943 1.19391 9.33333 2.66667 9.33333Z" fill="#5C7677"/>
<path d="M2.66667 18.6668C4.13943 18.6668 5.33333 17.4729 5.33333 16.0002C5.33333 14.5274 4.13943 13.3335 2.66667 13.3335C1.19391 13.3335 0 14.5274 0 16.0002C0 17.4729 1.19391 18.6668 2.66667 18.6668Z" fill="#5C7677"/>
<path d="M2.66667 27.9998C4.13943 27.9998 5.33333 26.8059 5.33333 25.3332C5.33333 23.8604 4.13943 22.6665 2.66667 22.6665C1.19391 22.6665 0 23.8604 0 25.3332C0 26.8059 1.19391 27.9998 2.66667 27.9998Z" fill="#5C7677"/>
</g>
<defs>
<clipPath id="clip0_427_901">
<rect width="32" height="32" fill="white"/>
</clipPath>
</defs>
</svg>
