<svg width="24" height="24" viewBox="0 0 24 24" fill="none" xmlns="http://www.w3.org/2000/svg">
<path d="M22.9565 10.9565H1.04346C0.467168 10.9565 0 11.4237 0 12C0 12.5763 0.467168 13.0434 1.04346 13.0434H22.9565C23.5328 13.0434 23.9999 12.5763 23.9999 12C24 11.4237 23.5328 10.9565 22.9565 10.9565Z" fill="#FD5F54"/>
<path d="M1.04346 5.73911H22.9565C23.5328 5.73911 23.9999 5.27195 23.9999 4.69565C23.9999 4.11936 23.5328 3.65219 22.9565 3.65219H1.04346C0.467168 3.65219 0 4.11936 0 4.69565C0 5.27195 0.467168 5.73911 1.04346 5.73911Z" fill="#FD5F54"/>
<path d="M22.9565 18.2608H1.04346C0.467168 18.2608 0 18.7281 0 19.3044C0 19.8806 0.467168 20.3478 1.04346 20.3478H22.9565C23.5328 20.3478 23.9999 19.8806 23.9999 19.3044C24 18.7281 23.5328 18.2608 22.9565 18.2608Z" fill="#FD5F54"/>
</svg>
