<svg width="18" height="22" viewBox="0 0 18 22" fill="none" xmlns="http://www.w3.org/2000/svg">
<path d="M9 1C6.87912 1.00233 4.84577 1.84583 3.34601 3.34544C1.84624 4.84505 1.00255 6.87832 1 8.9992C1 11.0591 2.59503 14.2828 5.74101 18.5806C6.11553 19.0937 6.6059 19.5111 7.17221 19.7988C7.73852 20.0866 8.36477 20.2366 9 20.2366C9.63523 20.2366 10.2615 20.0866 10.8278 19.7988C11.3941 19.5111 11.8845 19.0937 12.259 18.5806C15.405 14.2828 17 11.0591 17 8.9992C16.9975 6.87832 16.1538 4.84505 14.654 3.34544C13.1542 1.84583 11.1209 1.00233 9 1V1ZM9 12.1877C8.36589 12.1877 7.74603 11.9996 7.21879 11.6473C6.69155 11.295 6.28062 10.7943 6.03796 10.2085C5.7953 9.62265 5.7318 8.97801 5.85551 8.35609C5.97922 7.73417 6.28457 7.1629 6.73295 6.71452C7.18133 6.26614 7.7526 5.96079 8.37452 5.83708C8.99644 5.71337 9.64108 5.77686 10.2269 6.01952C10.8128 6.26218 11.3135 6.67312 11.6658 7.20036C12.0181 7.7276 12.2061 8.34746 12.2061 8.98157C12.2061 9.83187 11.8683 10.6474 11.267 11.2486C10.6658 11.8499 9.85031 12.1877 9 12.1877Z" stroke="#3D4F50" stroke-width="1.75"/>
</svg>
