<svg width="31" height="36" viewBox="0 0 31 36" fill="none" xmlns="http://www.w3.org/2000/svg">
<path d="M15.308 2C11.7799 2.00388 8.39743 3.40703 5.90257 5.90163C3.40772 8.39623 2.00423 11.7786 2 15.3066C2 18.7333 4.65333 24.096 9.88665 31.2453C10.5097 32.0988 11.3254 32.7931 12.2675 33.2718C13.2095 33.7505 14.2513 34 15.308 34C16.3647 34 17.4064 33.7505 18.3485 33.2718C19.2906 32.7931 20.1063 32.0988 20.7293 31.2453C25.9626 24.096 28.616 18.7333 28.616 15.3066C28.6117 11.7786 27.2082 8.39623 24.7134 5.90163C22.2185 3.40703 18.8361 2.00388 15.308 2V2ZM15.308 20.6106C14.2531 20.6106 13.222 20.2978 12.3449 19.7118C11.4679 19.1258 10.7843 18.2928 10.3806 17.3183C9.97696 16.3438 9.87134 15.2714 10.0771 14.2368C10.2829 13.2023 10.7909 12.252 11.5367 11.5061C12.2826 10.7602 13.2329 10.2523 14.2675 10.0465C15.3021 9.84068 16.3744 9.9463 17.349 10.35C18.3235 10.7536 19.1564 11.4372 19.7425 12.3143C20.3285 13.1913 20.6413 14.2225 20.6413 15.2773C20.6413 16.6918 20.0794 18.0484 19.0792 19.0485C18.079 20.0487 16.7225 20.6106 15.308 20.6106Z" stroke="#FD5F54" stroke-width="3"/>
</svg>
