<svg width="32" height="32" viewBox="0 0 32 32" fill="none" xmlns="http://www.w3.org/2000/svg">
<path d="M24.261 11.5391H23.7397V7.73861C23.7399 3.47154 20.268 0 16.0005 0C11.7331 0 8.26127 3.47154 8.26127 7.73861V11.5391H7.73974C6.21943 11.5391 4.98242 12.7761 4.98242 14.2965V29.2425C4.98242 30.7628 6.21943 31.9998 7.73974 31.9998H24.261C25.7813 31.9998 27.0183 30.7628 27.0183 29.2425V14.2965C27.0183 12.7761 25.7814 11.5391 24.261 11.5391ZM10.6247 7.73861C10.6247 4.77473 13.0363 2.36341 16.0005 2.36341C18.9647 2.36341 21.3763 4.77473 21.3763 7.73861V11.5391H10.6247V7.73861ZM24.6549 29.2427C24.6549 29.4562 24.4744 29.6366 24.261 29.6366H7.73974C7.52624 29.6366 7.34584 29.4562 7.34584 29.2427V14.2965C7.34584 14.083 7.52624 13.9025 7.73974 13.9025H9.44297H22.558H24.261C24.4744 13.9025 24.6549 14.083 24.6549 14.2965V29.2427Z" fill="#5C7677"/>
<path d="M16.0001 18.3257C15.3474 18.3257 14.8184 18.8546 14.8184 19.5074V24.0318C14.8184 24.6845 15.3474 25.2135 16.0001 25.2135C16.6527 25.2135 17.1818 24.6845 17.1818 24.0318V19.5074C17.1818 18.8546 16.6527 18.3257 16.0001 18.3257Z" fill="#5C7677"/>
</svg>
