<svg width="35" height="37" viewBox="0 0 35 37" fill="none" xmlns="http://www.w3.org/2000/svg">
<path d="M32.3623 0H1.64554C0.736763 0 0 0.736763 0 1.64554V8.2277C0 8.69141 0.1956 9.13351 0.53864 9.4454L12.0673 19.9251V34.5555C12.0673 35.1258 12.3625 35.6554 12.8476 35.9553C13.112 36.1185 13.4119 36.201 13.7128 36.201C13.9644 36.201 14.2166 36.1434 14.4487 36.0272L21.0309 32.7361C21.5884 32.4574 21.9405 31.8877 21.9405 31.2644V19.9251L33.4692 9.4454C33.8122 9.13351 34.0078 8.69141 34.0078 8.2277V1.64554C34.0078 0.736763 33.271 0 32.3623 0ZM19.1881 17.9795C18.845 18.2914 18.6494 18.7335 18.6494 19.1972V30.2475L15.3584 31.8931V19.1972C15.3584 18.7335 15.1628 18.2914 14.8197 17.9795L5.90211 9.87324H28.1057L19.1881 17.9795ZM30.7167 6.58216H3.29108V3.29108H30.7167V6.58216Z" fill="#FD5F54"/>
</svg>
