<svg width="32" height="32" viewBox="0 0 32 32" fill="none" xmlns="http://www.w3.org/2000/svg">
<g clip-path="url(#clip0_555_1524)">
<path d="M25.3333 2.66667H9.95067C9.02667 1.07333 7.304 0 5.33333 0C2.392 0 0 2.392 0 5.33333V25.3333C0 29.0093 2.99067 32 6.66667 32H25.3333C29.0093 32 32 29.0093 32 25.3333V9.33333C32 5.65733 29.0093 2.66667 25.3333 2.66667ZM29.104 8H22.6667C21.9307 8 21.3333 7.40267 21.3333 6.66667V5.33333H25.3333C27.072 5.33333 28.5533 6.448 29.104 8ZM2.66667 5.33333C2.66667 3.86267 3.86267 2.66667 5.33333 2.66667C6.804 2.66667 8 3.86267 8 5.33333V21.3333C8 22.804 6.804 24 5.33333 24C3.86267 24 2.66667 22.804 2.66667 21.3333V5.33333ZM25.3333 29.3333H6.66667C4.68133 29.3333 3.03067 27.88 2.72 25.9813C3.49333 26.4173 4.384 26.6667 5.33333 26.6667C8.27467 26.6667 10.6667 24.2747 10.6667 21.3333V5.33333H18.6667V6.66667C18.6667 8.872 20.4613 10.6667 22.6667 10.6667H29.3333V25.3333C29.3333 27.5387 27.5387 29.3333 25.3333 29.3333ZM21.3333 14.6667C21.3333 15.4027 20.736 16 20 16C19.264 16 18.6667 15.4027 18.6667 14.6667C18.6667 13.9307 19.264 13.3333 20 13.3333C20.736 13.3333 21.3333 13.9307 21.3333 14.6667ZM16 14.6667C16 15.4027 15.4027 16 14.6667 16C13.9307 16 13.3333 15.4027 13.3333 14.6667C13.3333 13.9307 13.9307 13.3333 14.6667 13.3333C15.4027 13.3333 16 13.9307 16 14.6667ZM26.6667 14.6667C26.6667 15.4027 26.0693 16 25.3333 16C24.5973 16 24 15.4027 24 14.6667C24 13.9307 24.5973 13.3333 25.3333 13.3333C26.0693 13.3333 26.6667 13.9307 26.6667 14.6667ZM21.3333 20C21.3333 20.736 20.736 21.3333 20 21.3333C19.264 21.3333 18.6667 20.736 18.6667 20C18.6667 19.264 19.264 18.6667 20 18.6667C20.736 18.6667 21.3333 19.264 21.3333 20ZM16 20C16 20.736 15.4027 21.3333 14.6667 21.3333C13.9307 21.3333 13.3333 20.736 13.3333 20C13.3333 19.264 13.9307 18.6667 14.6667 18.6667C15.4027 18.6667 16 19.264 16 20ZM26.6667 20C26.6667 20.736 26.0693 21.3333 25.3333 21.3333C24.5973 21.3333 24 20.736 24 20C24 19.264 24.5973 18.6667 25.3333 18.6667C26.0693 18.6667 26.6667 19.264 26.6667 20ZM21.3333 25.3333C21.3333 26.0693 20.736 26.6667 20 26.6667C19.264 26.6667 18.6667 26.0693 18.6667 25.3333C18.6667 24.5973 19.264 24 20 24C20.736 24 21.3333 24.5973 21.3333 25.3333ZM16 25.3333C16 26.0693 15.4027 26.6667 14.6667 26.6667C13.9307 26.6667 13.3333 26.0693 13.3333 25.3333C13.3333 24.5973 13.9307 24 14.6667 24C15.4027 24 16 24.5973 16 25.3333ZM26.6667 25.3333C26.6667 26.0693 26.0693 26.6667 25.3333 26.6667C24.5973 26.6667 24 26.0693 24 25.3333C24 24.5973 24.5973 24 25.3333 24C26.0693 24 26.6667 24.5973 26.6667 25.3333Z" fill="#FD5F54"/>
</g>
<defs>
<clipPath id="clip0_555_1524">
<rect width="32" height="32" fill="white"/>
</clipPath>
</defs>
</svg>
