<svg width="32" height="32" viewBox="0 0 32 32" fill="none" xmlns="http://www.w3.org/2000/svg">
<path d="M17.3097 1.33766C17.3097 0.983456 17.4504 0.643759 17.7008 0.3933C17.9513 0.14284 18.291 0.00213279 18.6452 0.00213279C22.186 0.00602131 25.5807 1.41434 28.0845 3.9181C30.5883 6.42185 31.9966 9.81656 32.0005 13.3574C32.0005 13.7116 31.8598 14.0513 31.6093 14.3018C31.3588 14.5522 31.0191 14.6929 30.6649 14.6929C30.3107 14.6929 29.971 14.5522 29.7206 14.3018C29.4701 14.0513 29.3294 13.7116 29.3294 13.3574C29.3262 10.5247 28.1995 7.80902 26.1966 5.80604C24.1936 3.80305 21.4778 2.67637 18.6452 2.67319C18.291 2.67319 17.9513 2.53248 17.7008 2.28202C17.4504 2.03156 17.3097 1.69186 17.3097 1.33766ZM18.6452 8.0153C20.062 8.0153 21.4208 8.57812 22.4226 9.57996C23.4245 10.5818 23.9873 11.9406 23.9873 13.3574C23.9873 13.7116 24.128 14.0513 24.3785 14.3018C24.6289 14.5522 24.9686 14.6929 25.3228 14.6929C25.677 14.6929 26.0167 14.5522 26.2672 14.3018C26.5176 14.0513 26.6584 13.7116 26.6584 13.3574C26.6562 11.2328 25.8113 9.19588 24.309 7.69358C22.8067 6.19129 20.7698 5.34636 18.6452 5.34424C18.291 5.34424 17.9513 5.48495 17.7008 5.73541C17.4504 5.98587 17.3097 6.32556 17.3097 6.67977C17.3097 7.03397 17.4504 7.37367 17.7008 7.62413C17.9513 7.87459 18.291 8.0153 18.6452 8.0153ZM30.7891 22.3575C31.5631 23.1336 31.9977 24.1849 31.9977 25.281C31.9977 26.377 31.5631 27.4284 30.7891 28.2045L29.5738 29.6054C18.6358 40.0773 -7.98121 13.4669 2.32906 2.49423L3.86491 1.1587C4.64188 0.406366 5.68381 -0.0098214 6.76528 0.000176035C7.84676 0.0101735 8.88081 0.445552 9.64374 1.21212C9.68514 1.25352 12.1599 4.46814 12.1599 4.46814C12.8942 5.23957 13.303 6.26432 13.3012 7.32937C13.2995 8.39442 12.8874 9.41783 12.1505 10.1869L10.604 12.1314C11.4599 14.211 12.7182 16.1009 14.3067 17.6927C15.8953 19.2844 17.7827 20.5466 19.8605 21.4066L21.8171 19.8507C22.5862 19.1145 23.6094 18.7028 24.6742 18.7014C25.7389 18.6999 26.7633 19.1086 27.5345 19.8427C27.5345 19.8427 30.7477 22.3161 30.7891 22.3575ZM28.9515 24.2994C28.9515 24.2994 25.7555 21.8407 25.7141 21.7993C25.439 21.5265 25.0672 21.3734 24.6798 21.3734C24.2923 21.3734 23.9205 21.5265 23.6454 21.7993C23.6093 21.8367 20.9156 23.9829 20.9156 23.9829C20.7341 24.1273 20.518 24.2221 20.2888 24.2577C20.0595 24.2933 19.8249 24.2685 19.6081 24.1859C16.9163 23.1836 14.4713 21.6146 12.4388 19.5851C10.4062 17.5555 8.83361 15.1129 7.82742 12.4225C7.73821 12.2028 7.70912 11.9632 7.74316 11.7285C7.77719 11.4938 7.87312 11.2724 8.02107 11.087C8.02107 11.087 10.1673 8.39191 10.2033 8.35719C10.4761 8.08205 10.6292 7.71028 10.6292 7.32282C10.6292 6.93537 10.4761 6.5636 10.2033 6.28846C10.1619 6.24839 7.70322 3.04981 7.70322 3.04981C7.42396 2.7994 7.0595 2.6653 6.68454 2.67499C6.30958 2.68467 5.95253 2.83741 5.68657 3.10189L4.15072 4.43742C-3.38433 13.4976 19.6816 35.2841 27.6213 27.7811L28.8379 26.3788C29.123 26.1147 29.2943 25.7501 29.3155 25.3621C29.3367 24.974 29.2061 24.5929 28.9515 24.2994Z" fill="#5C7677"/>
</svg>
