<svg width="40" height="32" viewBox="0 0 40 32" fill="none" xmlns="http://www.w3.org/2000/svg">
<path d="M30.947 0H8.14394C5.98483 0.00230961 3.91489 0.769283 2.38816 2.13268C0.861437 3.49608 0.00258628 5.34459 0 7.27273L0 24.7273C0.00258628 26.6554 0.861437 28.5039 2.38816 29.8673C3.91489 31.2307 5.98483 31.9977 8.14394 32H30.947C33.1061 31.9977 35.176 31.2307 36.7028 29.8673C38.2295 28.5039 39.0883 26.6554 39.0909 24.7273V7.27273C39.0883 5.34459 38.2295 3.49608 36.7028 2.13268C35.176 0.769283 33.1061 0.00230961 30.947 0ZM8.14394 2.90909H30.947C31.9223 2.9108 32.8747 3.17311 33.6816 3.66226C34.4886 4.15141 35.1132 4.84501 35.475 5.65382L23.0017 16.7942C22.0838 17.6106 20.841 18.069 19.5455 18.069C18.2499 18.069 17.0071 17.6106 16.0892 16.7942L3.61591 5.65382C3.97774 4.84501 4.60232 4.15141 5.40928 3.66226C6.21624 3.17311 7.16865 2.9108 8.14394 2.90909ZM30.947 29.0909H8.14394C6.848 29.0909 5.60513 28.6312 4.68876 27.8128C3.77239 26.9945 3.25758 25.8846 3.25758 24.7273V9.45455L13.7861 18.8509C15.3149 20.2127 17.3861 20.9775 19.5455 20.9775C21.7048 20.9775 23.776 20.2127 25.3048 18.8509L35.8333 9.45455V24.7273C35.8333 25.8846 35.3185 26.9945 34.4021 27.8128C33.4858 28.6312 32.2429 29.0909 30.947 29.0909Z" fill="white"/>
</svg>
