<svg width="32" height="32" viewBox="0 0 32 32" fill="none" xmlns="http://www.w3.org/2000/svg">
<path d="M31.6093 29.724L23.6506 21.7654C25.8195 19.1128 26.8858 15.7281 26.6291 12.3114C26.3724 8.89472 24.8122 5.70739 22.2714 3.40871C19.7306 1.11003 16.4034 -0.124129 12.9781 -0.0384868C9.55288 0.0471556 6.29156 1.44605 3.86877 3.86883C1.44598 6.29162 0.0470946 9.55294 -0.0385478 12.9782C-0.12419 16.4035 1.10997 19.7306 3.40865 22.2715C5.70733 24.8123 8.89466 26.3724 12.3114 26.6291C15.7281 26.8859 19.1127 25.8195 21.7653 23.6507L29.724 31.6094C29.9754 31.8522 30.3122 31.9866 30.6618 31.9836C31.0114 31.9805 31.3458 31.8403 31.5931 31.5931C31.8403 31.3459 31.9805 31.0115 31.9835 30.6619C31.9866 30.3123 31.8522 29.9755 31.6093 29.724ZM13.3333 24C11.2236 24 9.16133 23.3744 7.4072 22.2024C5.65308 21.0303 4.28591 19.3644 3.47857 17.4153C2.67124 15.4662 2.46 13.3215 2.87158 11.2524C3.28315 9.18325 4.29905 7.28264 5.79081 5.79088C7.28258 4.29912 9.18319 3.28321 11.2523 2.87164C13.3215 2.46006 15.4662 2.6713 17.4152 3.47863C19.3643 4.28597 21.0302 5.65314 22.2023 7.40727C23.3744 9.16139 24 11.2237 24 13.3333C23.9968 16.1614 22.872 18.8726 20.8723 20.8723C18.8726 22.872 16.1613 23.9968 13.3333 24Z" fill="#FD7F76"/>
</svg>
