<svg width="36" height="36" viewBox="0 0 36 36" fill="none" xmlns="http://www.w3.org/2000/svg">
<path d="M35.5463 33.4215L25.2173 23.0852C27.2536 20.6431 28.4783 17.5223 28.4783 14.1138C28.4783 6.33755 22.0965 0.0147705 14.2465 0.0147705C6.39656 0.0147705 0 6.34493 0 14.1211C0 21.8973 6.3818 28.2201 14.2318 28.2201C17.5666 28.2201 20.6357 27.0766 23.0704 25.1657L33.4362 35.5315C34.0412 36.1365 34.9413 36.1365 35.5463 35.5315C36.1512 34.9265 36.1512 34.0265 35.5463 33.4215ZM3.0249 14.1211C3.0249 8.01231 8.05656 3.04705 14.2318 3.04705C20.407 3.04705 25.4387 8.01231 25.4387 14.1211C25.4387 20.23 20.407 25.1952 14.2318 25.1952C8.05656 25.1952 3.0249 20.2226 3.0249 14.1211Z" fill="white"/>
</svg>
