<svg width="88" height="72" viewBox="0 0 88 72" fill="none" xmlns="http://www.w3.org/2000/svg">
<path d="M69.6307 0H18.3239C13.4659 0.00519662 8.80849 1.73089 5.37336 4.79854C1.93823 7.86619 0.00581914 12.0253 0 16.3636L0 55.6364C0.00581914 59.9747 1.93823 64.1338 5.37336 67.2015C8.80849 70.2691 13.4659 71.9948 18.3239 72H69.6307C74.4887 71.9948 79.1461 70.2691 82.5812 67.2015C86.0163 64.1338 87.9487 59.9747 87.9545 55.6364V16.3636C87.9487 12.0253 86.0163 7.86619 82.5812 4.79854C79.1461 1.73089 74.4887 0.00519662 69.6307 0ZM18.3239 6.54545H69.6307C71.8251 6.54931 73.968 7.1395 75.7837 8.24009C77.5993 9.34067 79.0046 10.9013 79.8188 12.7211L51.7539 37.7869C49.6886 39.6239 46.8923 40.6553 43.9773 40.6553C41.0623 40.6553 38.266 39.6239 36.2006 37.7869L8.1358 12.7211C8.94992 10.9013 10.3552 9.34067 12.1709 8.24009C13.9865 7.1395 16.1295 6.54931 18.3239 6.54545ZM69.6307 65.4545H18.3239C15.408 65.4545 12.6115 64.4201 10.5497 62.5789C8.48787 60.7376 7.32955 58.2403 7.32955 55.6364V21.2727L31.0186 42.4145C34.4585 45.4787 39.1187 47.1994 43.9773 47.1994C48.8358 47.1994 53.4961 45.4787 56.9359 42.4145L80.625 21.2727V55.6364C80.625 58.2403 79.4667 60.7376 77.4048 62.5789C75.343 64.4201 72.5466 65.4545 69.6307 65.4545Z" fill="#5C7677"/>
</svg>
