<svg width="32" height="27" viewBox="0 0 32 27" fill="none" xmlns="http://www.w3.org/2000/svg">
<path d="M25.3333 0H6.66667C4.89921 0.00189066 3.20474 0.629739 1.95496 1.74582C0.705176 2.86191 0.00211714 4.37511 0 5.95349L0 20.2419C0.00211714 21.8202 0.705176 23.3334 1.95496 24.4495C3.20474 25.5656 4.89921 26.1935 6.66667 26.1953H25.3333C27.1008 26.1935 28.7953 25.5656 30.045 24.4495C31.2948 23.3334 31.9979 21.8202 32 20.2419V5.95349C31.9979 4.37511 31.2948 2.86191 30.045 1.74582C28.7953 0.629739 27.1008 0.00189066 25.3333 0ZM6.66667 2.3814H25.3333C26.1317 2.3828 26.9114 2.59752 27.5719 2.99794C28.2325 3.39836 28.7438 3.96615 29.04 4.62824L18.8293 13.7478C18.0779 14.4162 17.0606 14.7914 16 14.7914C14.9394 14.7914 13.9221 14.4162 13.1707 13.7478L2.96 4.62824C3.2562 3.96615 3.76748 3.39836 4.42806 2.99794C5.08864 2.59752 5.86829 2.3828 6.66667 2.3814ZM25.3333 23.814H6.66667C5.6058 23.814 4.58839 23.4376 3.83824 22.7677C3.08809 22.0978 2.66667 21.1892 2.66667 20.2419V7.73953L11.2853 15.4314C12.5368 16.5462 14.2323 17.1723 16 17.1723C17.7677 17.1723 19.4632 16.5462 20.7147 15.4314L29.3333 7.73953V20.2419C29.3333 21.1892 28.9119 22.0978 28.1618 22.7677C27.4116 23.4376 26.3942 23.814 25.3333 23.814Z" fill="white"/>
</svg>
