<svg width="33" height="26" viewBox="0 0 33 26" fill="none" xmlns="http://www.w3.org/2000/svg">
<path d="M28.8345 6.58318C28.8533 6.86239 28.8533 7.14291 28.8533 7.42477C28.8533 16.0352 22.2225 25.9635 10.1014 25.9635V25.9582C6.521 25.9635 3.01422 24.9499 0 23.0378C0.520663 23.1 1.044 23.1304 1.56868 23.1318C4.5374 23.1344 7.42045 22.1499 9.75339 20.3371C6.93325 20.2841 4.45976 18.466 3.59646 15.8115C4.58424 15.9994 5.60148 15.9611 6.57186 15.7004C3.49607 15.0864 1.28493 12.4147 1.28493 9.31305C1.28493 9.28526 1.28493 9.25747 1.28493 9.231C2.20177 9.73649 3.22704 10.0157 4.2764 10.0461C1.37996 8.13403 0.485863 4.32571 2.23524 1.3484C5.5814 5.41872 10.519 7.8932 15.818 8.15653C15.2866 5.89377 16.0134 3.5225 17.724 1.93063C20.3781 -0.537234 24.5528 -0.410202 27.049 2.2138C28.5254 1.92666 29.9401 1.39074 31.2344 0.63252C30.7419 2.14103 29.7126 3.42193 28.3366 4.23706C29.6443 4.08223 30.9199 3.73687 32.1232 3.21021C31.2384 4.51891 30.1248 5.66087 28.8345 6.58318Z" fill="#F2F6F6"/>
</svg>
