<svg width="14" height="18" viewBox="0 0 14 18" fill="none" xmlns="http://www.w3.org/2000/svg">
<path d="M6.99976 9.00002C7.79089 9.00002 8.56425 8.76542 9.22205 8.32589C9.87985 7.88637 10.3925 7.26165 10.6953 6.53075C10.998 5.79984 11.0773 4.99557 10.9229 4.21965C10.7686 3.44372 10.3876 2.73099 9.8282 2.17158C9.26879 1.61217 8.55605 1.2312 7.78013 1.07686C7.0042 0.92252 6.19993 1.00173 5.46903 1.30448C4.73812 1.60724 4.11341 2.11993 3.67388 2.77772C3.23435 3.43552 2.99976 4.20888 2.99976 5.00001C3.00081 6.06055 3.42258 7.07735 4.1725 7.82727C4.92242 8.57719 5.93922 8.99896 6.99976 9.00002ZM6.99976 2.33334C7.52718 2.33334 8.04275 2.48974 8.48129 2.78275C8.91982 3.07577 9.26161 3.49225 9.46345 3.97952C9.66528 4.46679 9.71809 5.00297 9.6152 5.52025C9.5123 6.03753 9.25833 6.51269 8.88539 6.88563C8.51244 7.25857 8.03729 7.51255 7.52001 7.61544C7.00272 7.71834 6.46654 7.66553 5.97927 7.46369C5.492 7.26186 5.07552 6.92006 4.78251 6.48153C4.48949 6.043 4.33309 5.52743 4.33309 5.00001C4.33309 4.29276 4.61404 3.61449 5.11414 3.11439C5.61424 2.61429 6.29252 2.33334 6.99976 2.33334Z" fill="#3D4F50" stroke="#3D4F50" stroke-width="0.25"/>
<path d="M7.00001 10.3333C5.40925 10.335 3.88415 10.9677 2.75931 12.0926C1.63447 13.2174 1.00176 14.7425 1 16.3333C1 16.5101 1.07024 16.6796 1.19526 16.8047C1.32029 16.9297 1.48986 16.9999 1.66667 16.9999C1.84348 16.9999 2.01305 16.9297 2.13807 16.8047C2.2631 16.6796 2.33334 16.5101 2.33334 16.3333C2.33334 15.0956 2.825 13.9086 3.70017 13.0334C4.57534 12.1583 5.76233 11.6666 7.00001 11.6666C8.23769 11.6666 9.42468 12.1583 10.2998 13.0334C11.175 13.9086 11.6667 15.0956 11.6667 16.3333C11.6667 16.5101 11.7369 16.6796 11.8619 16.8047C11.987 16.9297 12.1565 16.9999 12.3334 16.9999C12.5102 16.9999 12.6797 16.9297 12.8048 16.8047C12.9298 16.6796 13 16.5101 13 16.3333C12.9983 14.7425 12.3655 13.2174 11.2407 12.0926C10.1159 10.9677 8.59077 10.335 7.00001 10.3333Z" fill="#3D4F50" stroke="#3D4F50" stroke-width="0.25"/>
</svg>
